<?xml version="1.0" encoding="UTF-8" standalone="no"?>
<!-- Created with Inkscape (http://www.inkscape.org/) -->

<svg
   xmlns:dc="http://purl.org/dc/elements/1.1/"
   xmlns:cc="http://creativecommons.org/ns#"
   xmlns:rdf="http://www.w3.org/1999/02/22-rdf-syntax-ns#"
   xmlns:svg="http://www.w3.org/2000/svg"
   xmlns="http://www.w3.org/2000/svg"
   xmlns:sodipodi="http://sodipodi.sourceforge.net/DTD/sodipodi-0.dtd"
   xmlns:inkscape="http://www.inkscape.org/namespaces/inkscape"
   version="1.1"
   width="224.09"
   height="72.360001"
   id="svg4411"
   inkscape:version="0.48.4 r9939"
   sodipodi:docname="Exide.svg">
  <sodipodi:namedview
     pagecolor="#ffffff"
     bordercolor="#666666"
     borderopacity="1"
     objecttolerance="10"
     gridtolerance="10"
     guidetolerance="10"
     inkscape:pageopacity="0"
     inkscape:pageshadow="2"
     inkscape:window-width="1280"
     inkscape:window-height="962"
     id="namedview27"
     showgrid="false"
     inkscape:zoom="4.213918"
     inkscape:cx="112.045"
     inkscape:cy="36.18"
     inkscape:window-x="-8"
     inkscape:window-y="-8"
     inkscape:window-maximized="1"
     inkscape:current-layer="svg4411" />
  <defs
     id="defs4413">
    <clipPath
       id="clipPath1386">
      <path
         d="m 643.8827,567.6032 c 10.3249,0 18.7461,-8.4212 18.7461,-18.7461 0,-10.3249 -8.4212,-18.746 -18.7461,-18.746 -10.3249,0 -18.7461,8.4211 -18.7461,18.746 0,10.3249 8.4212,18.7461 18.7461,18.7461"
         id="path1388" />
    </clipPath>
  </defs>
  <metadata
     id="metadata4416">
    <rdf:RDF>
      <cc:Work
         rdf:about="">
        <dc:format>image/svg+xml</dc:format>
        <dc:type
           rdf:resource="http://purl.org/dc/dcmitype/StillImage" />
        <dc:title />
      </cc:Work>
    </rdf:RDF>
  </metadata>
  <g
     transform="translate(0,-980.0022)"
     id="layer1">
    <path
       d="m 57.723838,997.08029 -3.37962,-0.0996 3.99375,-12.71763 15.98737,-0.006 0.34188,-1.25575 11.81875,-0.0325 -4.10813,14.01263 -11.7305,0.006 0.005,3.77136 15.01225,0.048 -3.088,9.7938 -12.02875,0 0,4.2984 15.28938,-0.077 -3.64538,13.096 -24.468,-0.02 0,-30.81694 z"
       id="path1360"
       style="fill:none;stroke:#ffffff;stroke-width:2.50012493;stroke-linecap:butt;stroke-linejoin:miter;stroke-miterlimit:10;stroke-opacity:1;stroke-dasharray:none" />
    <path
       d="m 57.723838,998.33035 -3.37962,-0.0996 3.99375,-12.71763 15.98737,-0.006 0.34188,-1.25575 11.81875,-0.0325 -4.10813,14.01263 -11.7305,0.006 0.005,3.7714 15.01225,0.048 -3.088,9.7937 -12.02875,0 0,4.2984 15.28938,-0.077 -3.64538,13.096 -24.468,-0.02"
       id="path1362"
       style="fill:#d9261c;fill-opacity:1;fill-rule:evenodd;stroke:none" />
    <path
       d="m 89.759588,984.25682 13.911002,0 5.04963,9.58362 5.7745,-9.58212 13.59812,0.01 -11.24962,21.20138 12.477,22.4008 -12.85225,0.048 -7.3155,-13.0402 -6.82125,12.8978 -13.549252,0 12.931002,-22.2949 -11.953382,-21.22768 z"
       id="path1364"
       style="fill:none;stroke:#ffffff;stroke-width:2.50012493;stroke-linecap:butt;stroke-linejoin:miter;stroke-miterlimit:10;stroke-opacity:1;stroke-dasharray:none" />
    <path
       d="m 89.759588,985.50688 13.911002,0 5.04963,9.58362 5.7745,-9.58212 13.59812,0.01 -11.24962,21.20142 12.477,22.4007 -12.85225,0.048 -7.3155,-13.0401 -6.82125,12.8977 -13.549252,0 12.931002,-22.2948"
       id="path1366"
       style="fill:#d9261c;fill-opacity:1;fill-rule:evenodd;stroke:none" />
    <path
       d="m 129.95346,997.52665 3.79238,-11.9275 11.81625,0 -0.49463,43.43425 -12.09125,0 0.32038,-31.50738 -3.34313,6.3e-4 z"
       id="path1368"
       style="fill:none;stroke:#1f1917;stroke-width:0.27000001;stroke-linecap:butt;stroke-linejoin:miter;stroke-miterlimit:10;stroke-opacity:1;stroke-dasharray:none" />
    <path
       d="m 129.95346,996.41159 3.79238,-11.9275 11.81625,0 -0.49463,43.43431 -12.09125,0 0.32038,-31.50744 -3.34313,6.3e-4 z"
       id="path1370"
       style="fill:none;stroke:#ffffff;stroke-width:2.50012493;stroke-linecap:butt;stroke-linejoin:miter;stroke-miterlimit:10;stroke-opacity:1;stroke-dasharray:none" />
    <path
       d="m 129.95346,997.66165 3.79238,-11.9275 11.81625,0 -0.49463,43.43425 -12.09125,0 0.32038,-31.50738"
       id="path1372"
       style="fill:#d9261c;fill-opacity:1;fill-rule:evenodd;stroke:none" />
    <path
       d="m 148.57321,996.50471 3.71263,-11.95375 16.56037,0.004 c 23.88325,4.71438 21.39625,37.43304 1.12325,43.36344 l -18.18787,-0.027 -0.1215,-31.38919 -3.08688,0.002 z"
       id="path1374"
       style="fill:none;stroke:#ffffff;stroke-width:2.50012493;stroke-linecap:butt;stroke-linejoin:miter;stroke-miterlimit:10;stroke-opacity:1;stroke-dasharray:none" />
    <path
       d="m 192.02047,984.72516 15.20862,-0.005 1.17,-1.14025 11.53563,-0.0248 -3.81438,13.74125 -11.46475,-0.0539 -0.0454,4.09464 14.2905,-0.026 -2.68938,9.3859 -12.23212,0.1169 -0.0255,4.6796 14.85737,0.047 -3.15887,12.2599 -24.09938,0.118 0.23375,-31.15106 -3.0305,-0.007 3.26438,-12.03413 z"
       id="path1376"
       style="fill:none;stroke:#ffffff;stroke-width:2.50012493;stroke-linecap:butt;stroke-linejoin:miter;stroke-miterlimit:10;stroke-opacity:1;stroke-dasharray:none" />
    <path
       d="m 192.02047,985.97522 15.20862,-0.005 1.17,-1.14025 11.53563,-0.0248 -3.81438,13.74125 -11.46475,-0.0539 -0.0454,4.09468 14.2905,-0.027 -2.68938,9.3858 -12.23212,0.1169 -0.0255,4.6796 14.85737,0.047 -3.15887,12.2599 -24.09938,0.118 0.23375,-31.151 -3.0305,-0.007"
       id="path1378"
       style="fill:#d9261c;fill-opacity:1;fill-rule:evenodd;stroke:none" />
    <path
       d="m 25.022823,986.32861 c 12.90612,0 23.432625,10.5265 23.432625,23.43259 0,12.9062 -10.526505,23.4325 -23.432625,23.4325 -12.90613,0 -23.4326306,-10.5263 -23.4326306,-23.4325 0,-12.90609 10.5265006,-23.43259 23.4326306,-23.43259"
       id="path1380"
       style="fill:#0a1fb3;fill-opacity:1;fill-rule:evenodd;stroke:none" />
    <g
       transform="matrix(1.2074073,-0.32352381,-0.32352381,-1.2074073,-1177.2887,2013.621)"
       id="g1382">
      <g
         transform="translate(492.59085,-19.887208)"
         clip-path="url(#clipPath1386)"
         id="g1384">
        <path
           d="m 627.1415,538.795 9.9471,16.5268 4.7205,-9.7169 7.8577,13.0964 4.7148,-9.0802 6.2861,10.1279 2.0954,-3.4923 -10.1276,-16.414 -4.5403,9.4291 -8.0322,-13.096 -4.7146,9.4291 -6.1115,-9.7783"
           id="path1390"
           style="fill:#ffffff;fill-opacity:1;fill-rule:evenodd;stroke:none" />
      </g>
    </g>
    <path
       d="m 164.44396,1011.0674 c 11.84038,0 11.65863,17.476 -0.004,17.476 l 0.004,-17.476 z"
       id="path1392"
       style="fill:none;stroke:#ffffff;stroke-width:1.25012505;stroke-linecap:butt;stroke-linejoin:miter;stroke-miterlimit:10;stroke-opacity:1;stroke-dasharray:none" />
    <path
       d="m 148.57321,997.75377 3.71225,-11.95412 16.56075,0.005 c 23.88363,4.71475 21.39625,37.43305 1.12363,43.36375 l -18.18788,-0.027 -0.1215,-31.3895 -3.08725,0.002 z m 15.87113,0.912 c 11.84,0 11.65825,17.47563 -0.005,17.47563"
       id="path1394"
       style="fill:#d9261c;fill-opacity:1;fill-rule:evenodd;stroke:none" />
    <path
       d="m 164.44396,998.63783 c 11.84038,0 11.65863,17.47597 -0.004,17.47597 l 0.004,-17.47597 z"
       id="path1396"
       style="fill:none;stroke:#ffffff;stroke-width:1.25012505;stroke-linecap:butt;stroke-linejoin:miter;stroke-miterlimit:10;stroke-opacity:1;stroke-dasharray:none" />
    <g
       transform="scale(0.87958561,1.136899)"
       style="font-size:13.19378376px;fill:#291770;fill-opacity:1"
       id="text1400">
      <path
         d="m 66.036313,924.40295 0,-10.23141 2.065824,0 0,10.23141 z"
         style="font-size:14.2932663px;font-variant:normal;font-weight:bold;writing-mode:lr-tb;fill:#291770;fill-rule:nonzero;stroke:none;font-family:Arial;-inkscape-font-specification:Arial Bold"
         id="path3005" />
      <path
         d="m 72.34687,924.40295 0,-10.23141 2.00999,0 4.187481,6.83258 0,-6.83258 1.919261,0 0,10.23141 -2.072802,0 -4.124669,-6.67205 0,6.67205 z"
         style="font-size:14.2932663px;font-variant:normal;font-weight:bold;writing-mode:lr-tb;fill:#291770;fill-rule:nonzero;stroke:none;font-family:Arial;-inkscape-font-specification:Arial Bold"
         id="path3007" />
      <path
         d="m 84.891966,914.17154 3.775712,0 c 0.851449,10e-6 1.500507,0.0651 1.947178,0.19542 0.600198,0.17681 1.114327,0.49087 1.542389,0.94218 0.428045,0.45133 0.753737,1.00384 0.977079,1.65755 0.223322,0.65372 0.334988,1.45981 0.334998,2.41827 -1e-5,0.84215 -0.104697,1.56798 -0.314061,2.17749 -0.255911,0.74444 -0.621152,1.34697 -1.095724,1.80759 -0.35827,0.34896 -0.842156,0.62115 -1.45166,0.81656 -0.455976,0.14424 -1.065487,0.21635 -1.828533,0.21635 l -3.887378,0 z m 2.065824,1.73083 0,6.77674 1.542389,0 c 0.576936,0 0.993357,-0.0326 1.249265,-0.0977 0.334992,-0.0838 0.612994,-0.22566 0.834006,-0.42573 0.220999,-0.20006 0.401293,-0.52925 0.540883,-0.98754 0.139575,-0.4583 0.209367,-1.08293 0.209374,-1.8739 -7e-6,-0.79096 -0.0698,-1.39815 -0.209374,-1.82156 -0.13959,-0.42339 -0.335005,-0.75373 -0.586247,-0.99103 -0.251256,-0.23729 -0.569969,-0.39781 -0.956142,-0.48156 -0.288476,-0.0651 -0.853785,-0.0977 -1.695929,-0.0977 z"
         style="font-size:14.2932663px;font-variant:normal;font-weight:bold;writing-mode:lr-tb;fill:#291770;fill-rule:nonzero;stroke:none;font-family:Arial;-inkscape-font-specification:Arial Bold"
         id="path3009" />
      <path
         d="m 97.458001,914.17154 2.065823,0 0,5.54144 c -3e-6,0.87937 0.02559,1.44933 0.07677,1.70988 0.0884,0.41875 0.298936,0.75492 0.631615,1.00849 0.33266,0.25358 0.78747,0.38036 1.36442,0.38036 0.58624,0 1.02825,-0.11981 1.32603,-0.35942 0.29777,-0.23962 0.4769,-0.53391 0.5374,-0.88286 0.0605,-0.34896 0.0907,-0.92823 0.0907,-1.73781 l 0,-5.66008 2.06583,0 0,5.37394 c -10e-6,1.22833 -0.0558,2.09607 -0.1675,2.60321 -0.11168,0.50716 -0.31756,0.93521 -0.61765,1.28416 -0.30012,0.34896 -0.70142,0.62696 -1.20391,0.83401 -0.5025,0.20705 -1.15854,0.31057 -1.96811,0.31057 -0.97708,0 -1.718034,-0.11283 -2.222855,-0.33849 -0.504826,-0.22565 -0.9038,-0.51878 -1.196921,-0.87937 -0.293126,-0.36058 -0.486215,-0.73862 -0.579269,-1.13411 -0.134931,-0.58624 -0.202395,-1.45165 -0.202394,-2.59623 z"
         style="font-size:14.2932663px;font-variant:normal;font-weight:bold;writing-mode:lr-tb;fill:#291770;fill-rule:nonzero;stroke:none;font-family:Arial;-inkscape-font-specification:Arial Bold"
         id="path3011" />
      <path
         d="m 109.52155,921.07391 2.00999,-0.19542 c 0.12097,0.67465 0.3664,1.17017 0.7363,1.48656 0.36989,0.31639 0.8689,0.47458 1.49703,0.47458 0.66533,0 1.16667,-0.14075 1.504,-0.42224 0.33732,-0.28149 0.50598,-0.61067 0.50599,-0.98755 -1e-5,-0.24194 -0.071,-0.44782 -0.21287,-0.61765 -0.14191,-0.16982 -0.38967,-0.31755 -0.74327,-0.44318 -0.24195,-0.0837 -0.7933,-0.23263 -1.65406,-0.44666 -1.10736,-0.27451 -1.88437,-0.61183 -2.33103,-1.01197 -0.62812,-0.56298 -0.94218,-1.24926 -0.94218,-2.05885 0,-0.5211 0.14772,-1.00848 0.44317,-1.46213 0.29545,-0.45363 0.72118,-0.7991 1.27718,-1.0364 0.556,-0.23728 1.22716,-0.35592 2.01348,-0.35593 1.28416,10e-6 2.25077,0.2815 2.89983,0.84447 0.64905,0.56299 0.98987,1.31441 1.02245,2.25426 l -2.06583,0.0907 c -0.0884,-0.52575 -0.27801,-0.90379 -0.5688,-1.13411 -0.2908,-0.2303 -0.72699,-0.34546 -1.30858,-0.34547 -0.60021,10e-6 -1.07014,0.12331 -1.40979,0.3699 -0.21868,0.1582 -0.32802,0.3699 -0.32802,0.6351 0,0.24195 0.10236,0.449 0.30708,0.62114 0.26055,0.21869 0.89333,0.44667 1.89833,0.68396 1.00499,0.23729 1.74826,0.48273 2.22983,0.7363 0.48155,0.25358 0.85843,0.60021 1.13062,1.03989 0.27218,0.43969 0.40827,0.98289 0.40828,1.62962 -1e-5,0.58625 -0.16286,1.13528 -0.48854,1.64708 -0.3257,0.5118 -0.78632,0.89217 -1.38187,1.14109 -0.59556,0.24892 -1.33767,0.37338 -2.22634,0.37338 -1.29347,0 -2.28683,-0.29894 -2.98009,-0.89682 -0.69326,-0.59787 -1.10736,-1.4691 -1.24229,-2.61368 z"
         style="font-size:14.2932663px;font-variant:normal;font-weight:bold;writing-mode:lr-tb;fill:#291770;fill-rule:nonzero;stroke:none;font-family:Arial;-inkscape-font-specification:Arial Bold"
         id="path3013" />
      <path
         d="m 124.13498,924.40295 0,-8.50058 -3.03592,0 0,-1.73083 8.13069,0 0,1.73083 -3.02894,0 0,8.50058 z"
         style="font-size:14.2932663px;font-variant:normal;font-weight:bold;writing-mode:lr-tb;fill:#291770;fill-rule:nonzero;stroke:none;font-family:Arial;-inkscape-font-specification:Arial Bold"
         id="path3015" />
      <path
         d="m 132.8253,924.40295 0,-10.23141 4.348,0 c 1.09339,10e-6 1.88785,0.0919 2.38337,0.27568 0.49551,0.18379 0.89216,0.51065 1.18994,0.98057 0.29777,0.46993 0.44666,1.00733 0.44667,1.61218 -10e-6,0.76771 -0.22567,1.40165 -0.67698,1.90181 -0.45132,0.50018 -1.12597,0.8154 -2.02395,0.94567 0.44666,0.26056 0.81539,0.54671 1.1062,0.85844 0.29079,0.31174 0.68278,0.86541 1.17598,1.66103 l 1.24927,1.99603 -2.47062,0 -1.49353,-2.22634 c -0.53042,-0.79562 -0.89334,-1.29695 -1.08875,-1.504 -0.19542,-0.20705 -0.40247,-0.34896 -0.62114,-0.42573 -0.21868,-0.0768 -0.56531,-0.11515 -1.03989,-0.11516 l -0.41875,0 0,4.27123 z m 2.06582,-5.90434 1.52843,0 c 0.99103,0 1.60985,-0.0419 1.85645,-0.12563 0.24659,-0.0837 0.43968,-0.22798 0.57927,-0.4327 0.13957,-0.20472 0.20937,-0.46062 0.20937,-0.76771 0,-0.3443 -0.0919,-0.6223 -0.27567,-0.83401 -0.18379,-0.21169 -0.44318,-0.34545 -0.77818,-0.4013 -0.1675,-0.0233 -0.67,-0.0349 -1.50749,-0.0349 l -1.61218,0 z"
         style="font-size:14.2932663px;font-variant:normal;font-weight:bold;writing-mode:lr-tb;fill:#291770;fill-rule:nonzero;stroke:none;font-family:Arial;-inkscape-font-specification:Arial Bold"
         id="path3017" />
      <path
         d="m 145.32853,924.40295 0,-10.23141 2.06583,0 0,10.23141 z"
         style="font-size:14.2932663px;font-variant:normal;font-weight:bold;writing-mode:lr-tb;fill:#291770;fill-rule:nonzero;stroke:none;font-family:Arial;-inkscape-font-specification:Arial Bold"
         id="path3019" />
      <path
         d="m 151.61815,924.40295 0,-10.23141 7.58632,0 0,1.73083 -5.52049,0 0,2.26822 5.13664,0 0,1.72384 -5.13664,0 0,2.78468 5.71591,0 0,1.72384 z"
         style="font-size:14.2932663px;font-variant:normal;font-weight:bold;writing-mode:lr-tb;fill:#291770;fill-rule:nonzero;stroke:none;font-family:Arial;-inkscape-font-specification:Arial Bold"
         id="path3021" />
      <path
         d="m 162.88161,921.07391 2.00999,-0.19542 c 0.12097,0.67465 0.36641,1.17017 0.7363,1.48656 0.36989,0.31639 0.8689,0.47458 1.49703,0.47458 0.66534,0 1.16667,-0.14075 1.504,-0.42224 0.33732,-0.28149 0.50598,-0.61067 0.50599,-0.98755 -1e-5,-0.24194 -0.071,-0.44782 -0.21287,-0.61765 -0.14191,-0.16982 -0.38967,-0.31755 -0.74327,-0.44318 -0.24195,-0.0837 -0.7933,-0.23263 -1.65406,-0.44666 -1.10736,-0.27451 -1.88437,-0.61183 -2.33103,-1.01197 -0.62812,-0.56298 -0.94218,-1.24926 -0.94218,-2.05885 0,-0.5211 0.14772,-1.00848 0.44317,-1.46213 0.29545,-0.45363 0.72118,-0.7991 1.27718,-1.0364 0.55601,-0.23728 1.22717,-0.35592 2.01348,-0.35593 1.28416,10e-6 2.25077,0.2815 2.89983,0.84447 0.64906,0.56299 0.98987,1.31441 1.02245,2.25426 l -2.06583,0.0907 c -0.0884,-0.52575 -0.278,-0.90379 -0.5688,-1.13411 -0.2908,-0.2303 -0.72699,-0.34546 -1.30858,-0.34547 -0.60021,10e-6 -1.07014,0.12331 -1.40979,0.3699 -0.21868,0.1582 -0.32802,0.3699 -0.32802,0.6351 0,0.24195 0.10236,0.449 0.30708,0.62114 0.26056,0.21869 0.89333,0.44667 1.89833,0.68396 1.00499,0.23729 1.74827,0.48273 2.22983,0.7363 0.48156,0.25358 0.85843,0.60021 1.13062,1.03989 0.27218,0.43969 0.40827,0.98289 0.40828,1.62962 -1e-5,0.58625 -0.16285,1.13528 -0.48854,1.64708 -0.3257,0.5118 -0.78632,0.89217 -1.38187,1.14109 -0.59556,0.24892 -1.33767,0.37338 -2.22634,0.37338 -1.29347,0 -2.28683,-0.29894 -2.98009,-0.89682 -0.69326,-0.59787 -1.10736,-1.4691 -1.24229,-2.61368 z"
         style="font-size:14.2932663px;font-variant:normal;font-weight:bold;writing-mode:lr-tb;fill:#291770;fill-rule:nonzero;stroke:none;font-family:Arial;-inkscape-font-specification:Arial Bold"
         id="path3023" />
      <path
         d="m 179.2212,924.40295 0,-10.14766 2.06582,0 0,8.42382 5.13664,0 0,1.72384 z"
         style="font-size:14.2932663px;font-variant:normal;font-weight:bold;writing-mode:lr-tb;fill:#291770;fill-rule:nonzero;stroke:none;font-family:Arial;-inkscape-font-specification:Arial Bold"
         id="path3025" />
      <path
         d="m 190.089,924.40295 0,-10.23141 2.06583,0 0,10.23141 z"
         style="font-size:14.2932663px;font-variant:normal;font-weight:bold;writing-mode:lr-tb;fill:#291770;fill-rule:nonzero;stroke:none;font-family:Arial;-inkscape-font-specification:Arial Bold"
         id="path3027" />
      <path
         d="m 196.35072,924.40295 0,-10.23141 3.09176,0 1.85645,6.97914 1.83551,-6.97914 3.09873,0 0,10.23141 -1.91926,0 0,-8.05392 -2.03093,8.05392 -1.98905,0 -2.02395,-8.05392 0,8.05392 z"
         style="font-size:14.2932663px;font-variant:normal;font-weight:bold;writing-mode:lr-tb;fill:#291770;fill-rule:nonzero;stroke:none;font-family:Arial;-inkscape-font-specification:Arial Bold"
         id="path3029" />
      <path
         d="m 210.47537,924.40295 0,-10.23141 2.06582,0 0,10.23141 z"
         style="font-size:14.2932663px;font-variant:normal;font-weight:bold;writing-mode:lr-tb;fill:#291770;fill-rule:nonzero;stroke:none;font-family:Arial;-inkscape-font-specification:Arial Bold"
         id="path3031" />
      <path
         d="m 219.0681,924.40295 0,-8.50058 -3.03592,0 0,-1.73083 8.13069,0 0,1.73083 -3.02894,0 0,8.50058 z"
         style="font-size:14.2932663px;font-variant:normal;font-weight:bold;writing-mode:lr-tb;fill:#291770;fill-rule:nonzero;stroke:none;font-family:Arial;-inkscape-font-specification:Arial Bold"
         id="path3033" />
      <path
         d="m 227.75147,924.40295 0,-10.23141 7.58632,0 0,1.73083 -5.5205,0 0,2.26822 5.13665,0 0,1.72384 -5.13665,0 0,2.78468 5.71591,0 0,1.72384 z"
         style="font-size:14.2932663px;font-variant:normal;font-weight:bold;writing-mode:lr-tb;fill:#291770;fill-rule:nonzero;stroke:none;font-family:Arial;-inkscape-font-specification:Arial Bold"
         id="path3035" />
      <path
         d="m 239.53139,914.17154 3.77571,0 c 0.85145,10e-6 1.5005,0.0651 1.94718,0.19542 0.60019,0.17681 1.11432,0.49087 1.54238,0.94218 0.42805,0.45133 0.75374,1.00384 0.97708,1.65755 0.22333,0.65372 0.33499,1.45981 0.335,2.41827 -1e-5,0.84215 -0.10469,1.56798 -0.31406,2.17749 -0.25591,0.74444 -0.62115,1.34697 -1.09572,1.80759 -0.35827,0.34896 -0.84216,0.62115 -1.45166,0.81656 -0.45598,0.14424 -1.06549,0.21635 -1.82854,0.21635 l -3.88737,0 z m 2.06582,1.73083 0,6.77674 1.54239,0 c 0.57693,0 0.99336,-0.0326 1.24926,-0.0977 0.335,-0.0838 0.613,-0.22566 0.83401,-0.42573 0.221,-0.20006 0.40129,-0.52925 0.54088,-0.98754 0.13958,-0.4583 0.20937,-1.08293 0.20938,-1.8739 -1e-5,-0.79096 -0.0698,-1.39815 -0.20938,-1.82156 -0.13959,-0.42339 -0.335,-0.75373 -0.58624,-0.99103 -0.25126,-0.23729 -0.56997,-0.39781 -0.95615,-0.48156 -0.28847,-0.0651 -0.85378,-0.0977 -1.69593,-0.0977 z"
         style="font-size:14.2932663px;font-variant:normal;font-weight:bold;writing-mode:lr-tb;fill:#291770;fill-rule:nonzero;stroke:none;font-family:Arial;-inkscape-font-specification:Arial Bold"
         id="path3037" />
    </g>
  </g>
</svg>
