<svg version="1.2" xmlns="http://www.w3.org/2000/svg" viewBox="0 0 842 595" width="842" height="595">
	<style>
		.s0 { fill: #ec1c24 } 
		.s1 { fill: #064da1 } 
		.s2 { fill: #fefefe } 
		.s3 { fill: none;stroke: #fefefe;stroke-miterlimit:3.86371;stroke-width: 1.3 } 
	</style>
	<g id="Layer 1">
		<path id="&lt;Path&gt;" class="s0" d="m342.52 234.44h47.71l13.3 30.78 13.29-30.78h47.71l-31.87 65.01 35.15 66.1h-49.17l-15.11-32.59-15.12 32.59h-48.8l36.78-66.29z"/>
		<path id="&lt;Path&gt;" class="s0" d="m473.66 234.44h44.77v131.11h-44.79v-89.41h0.18-10.56z"/>
		<path id="&lt;Path&gt;" class="s0" d="m718.3 229.16h35.33l-1.82 5.46h0.02l-11.49 40.61h-37.15v8.01l47.58-0.08-9.52 35.05h-38.06v7.83h48.25l-11.1 39.51h-81.77v-89.41h-10.56l10.56-41.52h57.18z"/>
		<path id="&lt;Path&gt;" class="s0" d="m302.62 229.16h35.33l-1.83 5.46h0.03l-11.5 40.61h-37.15v8.01l47.37 0.04-9.31 34.93h-38.06v7.83h48.26l-11.11 39.51h-81.76v-89.41h-10.56l10.56-41.52h57.18z"/>
		<path id="&lt;Path&gt;" class="s1" d="m72.88 297.58c0-37.19 30.14-67.34 67.33-67.34 37.19 0 67.34 30.15 67.34 67.34 0 37.19-30.15 67.33-67.34 67.33-37.19 0-67.33-30.14-67.33-67.33z"/>
		<path id="&lt;Path&gt;" class="s2" d="m86.97 338.8l0.42 0.53 0.52 0.64 0.55 0.67 0.56 0.64 0.67 0.79 0.75 0.84 0.95 0.99 0.84 0.87 0.75 0.75 0.79 0.8 0.52 0.47-0.01-0.02 12.74-38.6 23.24 28.86 17.98-52.09 21.36 29.98 20.92-62.12-0.02-0.04-0.95-0.95-1.11-1.19-1.03-1.03-0.96-0.95-0.87-0.79-0.79-0.8-0.71-0.55-0.32-0.24-13.03 37.56-23.98-30.36-16.12 52.09-23.23-29.23-20.36 62.34z"/>
		<path id="&lt;Path&gt;" class="s3" d="m86.97 338.8l0.42 0.53 0.52 0.64 0.55 0.67 0.56 0.64 0.67 0.79 0.75 0.84 0.95 0.99 0.84 0.87 0.75 0.75 0.79 0.8 0.52 0.47-0.01-0.02 12.74-38.6 23.24 28.86 17.98-52.09 21.36 29.98 20.92-62.12-0.02-0.04-0.95-0.95-1.11-1.19-1.03-1.03-0.96-0.95-0.87-0.79-0.79-0.8-0.71-0.55-0.32-0.24-13.03 37.56-23.98-30.36-16.12 52.09-23.23-29.23-20.36 62.34z"/>
		<path id="&lt;Compound Path&gt;" fill-rule="evenodd" class="s0" d="m585.32 365.56h-49.55l-0.22-89.42h-10.38l10.39-41.33h49.22c33.99 1.68 60.77 30.83 60.77 65.41 0 34.45-26.54 63.66-60.23 65.34zm-49.74-130.8c13.41 0 5.97 0.03-0.02 0.05zm-0.01 0.04h-0.01q0.01 0 0.01 0zm41.87 91.78c3.11 0.01 6.59 0.36 9.65-0.18 24.44-4.3 24.18-48.01 0-50.08-3.25-0.28-6.3-0.3-9.65-0.27z"/>
	</g>
</svg>