<svg width="334" height="51" viewBox="0 0 334 51" fill="none" xmlns="http://www.w3.org/2000/svg">
<g clip-path="url(#clip0_563_8690)">
<path d="M69.6004 10.0996V35.6996H87.5004V40.8996H69.6004C66.7004 40.8996 64.4004 38.5996 64.4004 35.6996V10.0996H69.6004Z" fill="white"/>
<path d="M249.399 15.2996V22.8996H264.899C267.799 22.8996 270.099 25.0996 270.099 28.0996V35.6996C270.099 38.5996 267.799 40.8996 264.899 40.8996H249.399C246.499 40.8996 244.199 38.5996 244.199 35.6996H264.899V28.0996H249.399C246.499 28.0996 244.199 25.4996 244.199 22.8996V15.2996C244.199 12.3996 246.499 10.0996 249.399 10.0996H264.899C267.799 10.0996 270.099 12.3996 270.099 15.2996H249.399Z" fill="white"/>
<path d="M1.4 25.5C1.4 38.9 12.1 49.6 25.4 49.6C38.7 49.6 49.4 38.8 49.4 25.5C49.4 12.2 38.8 1.3 25.4 1.3C12 1.3 1.4 12.4 1.4 25.5ZM51 25.5C51 39.9 39.6 51 25.4 51C11.2 51 0 39.9 0 25.5C0 11.1 11 0 25.4 0C39.8 0 51 11.1 51 25.5Z" fill="#E3000B"/>
<path d="M25.3992 10.2998C33.7992 10.2998 40.5992 17.0998 40.5992 25.4998C40.5992 33.8998 33.7992 40.6998 25.3992 40.6998C16.9992 40.6998 10.1992 33.8998 10.1992 25.4998C10.1992 17.0998 16.9992 10.2998 25.3992 10.2998Z" fill="#E3000B"/>
<path d="M159.001 10.0996V35.6996H176.901V40.8996H159.001C156.101 40.8996 153.801 38.5996 153.801 35.6996V10.0996H159.001Z" fill="white"/>
<path d="M97.2996 35.6996V28.0996H113.1V22.8996H97.2996V15.2996H117.8V10.0996H92.0996V40.8996H117.8V35.6996H97.2996Z" fill="white"/>
<path d="M186.399 35.6996V28.0996H202.199V22.8996H186.399V15.2996H206.899V10.0996H181.199V40.8996H206.899V35.6996H186.399Z" fill="white"/>
<path d="M300.7 15.2996V10.0996H275V40.8996H300.7V35.6996H280.1V28.0996H295.9V22.8996H280.1V15.2996H300.7Z" fill="white"/>
<path d="M143.9 25.2996C143.9 29.7996 143.7 32.4996 142.7 33.8996C141.7 35.0996 140.4 35.6996 138.4 35.6996H128.3V15.1996H138.4C140.4 15.1996 141.7 15.7996 142.7 16.9996C143.8 18.2996 143.9 20.8996 143.9 25.2996ZM149.2 25.2996C149.2 20.8996 149.5 16.1996 146.2 12.8996C144.2 10.9996 142 10.0996 138.9 10.0996H123V40.7996H138.9C142 40.7996 144.3 39.8996 146.2 37.9996C149.5 34.6996 149.2 29.6996 149.2 25.2996Z" fill="white"/>
<path d="M326.2 23.0996H310.7V15.2996H326.2V23.0996ZM331.4 22.9996V15.2996C331.4 12.3996 329.1 10.0996 326.2 10.0996H305.5V40.7996H310.7V28.1996H318.3L327.7 40.7996H333.4L324.4 28.1996H326.3C329.2 28.1996 331.5 25.4996 331.5 22.8996" fill="white"/>
<path d="M212.1 10.0996H229.4C235.7 10.0996 239.8 14.4996 239.8 21.7996V40.8996H234.6V22.3996C234.6 16.8996 231.3 15.2996 228.8 15.2996H217.2V40.8996H212V10.0996H212.1Z" fill="white"/>
</g>
<defs>
<clipPath id="clip0_563_8690">
<rect width="333.3" height="51" fill="white"/>
</clipPath>
</defs>
</svg>
