<svg width="62" height="59" viewBox="0 0 62 59" fill="none" xmlns="http://www.w3.org/2000/svg">
<rect y="0.289428" width="61.998" height="58.4212" fill="white"/>
<path d="M44.4403 34.5487H38.1957V31.6035H44.506C46.1493 31.6035 46.9381 31.323 47.0038 30.6919C47.0038 30.0609 46.215 29.7102 44.2431 29.2194C41.2194 28.448 39.3132 27.256 39.3789 25.3627C39.4447 23.1188 42.2054 21.3657 46.6751 21.3657H51.2764V24.1706H47.1353C45.6892 24.1706 44.9004 24.5212 44.8347 25.0822C44.8347 25.7133 45.7549 25.9938 47.9898 26.6249C50.619 27.3261 52.0651 28.3078 52.3938 29.57V8.95416H9.53671V27.1157C9.99683 24.2407 12.2317 21.5761 16.1099 21.5761H23.2089V24.4511H18.4762C13.152 24.4511 12.889 31.6737 18.0818 31.6737H19.7251V27.3261H24.4578V34.5487H15.6498C12.0345 34.5487 9.99683 32.2346 9.60244 29.57V39.8779H52.4595V31.1828C51.9337 33.0761 49.1729 34.6188 44.4403 34.6188" fill="#002980"/>
<path d="M19.7247 27.2554H17.2268V29.85H19.7247V27.2554Z" fill="#FFBF00"/>
<path d="M32.2128 26.4846L35.5652 21.5058H41.0211L34.7107 29.4298V34.4086H29.2548V29.57L23.1415 21.5058H28.7289L32.2128 26.4846Z" fill="white"/>
<path d="M52.3936 39.7377H9.53656V50.0456H52.3936V39.7377Z" fill="#FFBF00"/>
</svg>
